<svg xmlns="http://www.w3.org/2000/svg" width="696" height="360" viewBox="0 0 696 360" version="1.1">
	<path d="M 0 180.001 L 0 360.003 348.250 359.751 L 696.500 359.500 696.753 179.750 L 697.005 -0 348.503 -0 L 0 0 0 180.001 M 0.489 180.500 C 0.489 279.500, 0.607 320.148, 0.750 270.829 C 0.893 221.510, 0.893 140.510, 0.750 90.829 C 0.607 41.148, 0.489 81.500, 0.489 180.500 M 321 49.018 C 289.732 53.366, 263.933 65.654, 242.032 86.630 L 232.500 95.759 232.842 101.947 L 233.184 108.134 240.842 99.890 C 258.174 81.230, 274.755 70.530, 297.903 63.068 C 357.339 43.907, 423.686 71.315, 452.386 126.885 C 457.248 136.298, 462.268 149.534, 463.522 156.250 C 463.907 158.313, 464.536 160, 464.920 160 C 466.111 160, 468.691 157.615, 470.341 154.987 C 471.825 152.625, 471.715 151.867, 468.500 142.284 C 452.699 95.188, 412.352 60.113, 362.926 50.506 C 352.905 48.558, 330.124 47.750, 321 49.018 M 270 81.101 C 255.104 90.013, 238.356 118.068, 225.998 154.810 C 223.281 162.889, 221.044 168.721, 221.029 167.769 C 221.013 166.817, 222.192 157.592, 223.649 147.269 C 225.733 132.507, 226.320 124.301, 226.399 108.832 C 226.494 90.330, 226.375 88.995, 224.400 86.332 C 221.975 83.063, 218.731 82.271, 215.296 84.109 C 209.805 87.048, 199.502 106.514, 194.447 123.500 C 190.875 135.503, 189.928 151.939, 192.497 157.353 C 194.234 161.012, 197.008 162.530, 200.671 161.825 C 203.132 161.351, 203.005 158.618, 200.500 158.167 C 197.566 157.637, 196.849 156.637, 195.958 151.830 C 194.804 145.607, 196.683 131.935, 200.112 121.596 C 204.959 106.982, 216.280 87.007, 218.490 89.171 C 221.183 91.808, 221.588 104.087, 219.528 120.658 C 207.965 213.702, 206.581 228.749, 209.500 229.656 C 212.101 230.465, 213.253 227.606, 215.042 215.895 C 217.100 202.425, 225.954 168.747, 231.359 153.828 C 244.238 118.277, 258.837 93.868, 271.744 86.304 L 276.290 83.640 278.145 85.931 C 279.503 87.608, 280 89.872, 280 94.381 C 280 109.089, 271.226 128.793, 253.536 153.813 C 240.367 172.440, 239.646 173.634, 240.392 175.578 C 241.324 178.009, 243.955 177.167, 249.834 172.557 C 268.667 157.788, 280.514 162.077, 281.771 184.120 C 282.622 199.048, 283.102 198.300, 266.774 207.500 C 234.409 225.736, 220.801 236.790, 214.720 249.784 C 212.288 254.981, 211.839 257.049, 212.200 261.395 C 213.017 271.244, 218.871 276, 230.179 276 C 246.217 276, 265.002 260.082, 276.795 236.500 C 281.019 228.054, 285.286 215.521, 286.499 208 C 287.466 202.007, 287.556 201.883, 294.711 196.625 C 298.127 194.115, 305.050 188.241, 310.097 183.571 L 319.272 175.080 321.984 177.983 C 327.850 184.262, 335.447 183.197, 347.750 174.370 L 350 172.756 350.020 180.128 C 350.064 196.042, 352.810 205.070, 357.835 205.818 C 361.015 206.291, 364.561 201.841, 369.928 190.645 L 374.652 180.790 375.774 189.900 C 377.463 203.623, 380.336 207.967, 385.759 205 C 387.718 203.928, 390.228 200.039, 394.555 191.373 C 399.903 180.664, 400.622 179.648, 400.708 182.681 C 401.006 193.184, 408.525 196.481, 414.398 188.682 C 420.305 180.838, 421.613 169.428, 417.425 162.281 C 415.382 158.796, 415.095 157.591, 416.036 156.456 C 417.778 154.358, 416.421 151.801, 413.768 152.180 C 410.855 152.596, 405.288 161.611, 395.037 182.512 C 390.718 191.318, 386.288 199.335, 385.191 200.327 C 383.243 202.091, 383.171 202.047, 381.960 198.380 C 380.414 193.694, 381.246 169.384, 383.379 156.923 C 385.502 144.526, 387.827 133.585, 388.990 130.527 C 389.545 129.066, 390 126.324, 390 124.435 C 390 121.682, 389.608 121, 388.026 121 C 386.870 121, 385.483 122.141, 384.682 123.750 C 381.754 129.633, 377.729 148.581, 376.452 162.500 C 375.907 168.433, 374.706 171.787, 368.575 184.500 C 364.597 192.750, 360.597 200.111, 359.687 200.859 C 358.239 202.048, 357.907 201.885, 357.017 199.544 C 354.254 192.277, 356.712 160.515, 361.662 139.500 C 363.088 133.450, 364.469 126.813, 364.732 124.750 C 365.151 121.463, 364.953 121, 363.125 121 C 359.321 121, 356.080 130.320, 352.520 151.500 C 351.687 156.450, 350.988 161.850, 350.965 163.500 C 350.933 165.834, 349.938 167.277, 346.480 170 C 340.249 174.907, 335.574 177.182, 331.482 177.298 C 327.372 177.414, 325.250 175.643, 324.521 171.487 C 324.034 168.706, 324.359 168.325, 329.234 165.963 C 335.416 162.968, 339.235 158.003, 338.797 153.532 C 338.542 150.931, 338.047 150.456, 335.314 150.191 C 333.561 150.022, 330.740 150.600, 329.044 151.477 C 325.189 153.471, 320.244 160.182, 319.429 164.526 C 318.974 166.954, 316.413 170.152, 309.656 176.735 C 301.553 184.628, 290.234 194, 288.805 194 C 288.522 194, 288.044 189.524, 287.743 184.052 C 287.094 172.282, 284.217 164.715, 278.970 160.979 C 274.673 157.919, 266.826 157.210, 261.567 159.408 C 259.436 160.298, 257.480 160.814, 257.220 160.554 C 256.960 160.294, 259.546 156.169, 262.966 151.388 C 279.604 128.128, 288.966 103.362, 286.049 90.328 C 283.716 79.903, 277.743 76.469, 270 81.101 M 210.468 130.626 C 207.278 137.789, 203 150.277, 203 152.426 C 203 153.292, 203.440 154, 203.977 154 C 206.140 154, 208.128 158.799, 207.454 162.392 C 206.881 165.448, 206.312 166.038, 203.419 166.581 C 200.547 167.120, 199.955 167.723, 199.401 170.676 C 198.389 176.069, 199.605 207.867, 201.057 214 L 202.360 219.500 203.071 215.500 C 203.463 213.300, 204.532 204.075, 205.448 195 C 206.363 185.925, 208.610 166.575, 210.441 152 C 212.272 137.425, 213.616 125.332, 213.427 125.126 C 213.239 124.920, 211.907 127.395, 210.468 130.626 M 476.765 154.867 C 475.438 156.444, 473.769 159.144, 473.055 160.867 C 472.314 162.656, 471.021 164, 470.041 164 C 468.370 164, 461.919 168.215, 451.236 176.287 L 445.973 180.264 440.236 174.963 C 432.720 168.016, 432.029 167.114, 432.721 165.153 C 433.622 162.599, 436.268 159.859, 438.750 158.910 C 441.386 157.902, 441.584 156.727, 439.471 154.614 C 435.628 150.771, 426 159.601, 426 166.970 C 426 169.673, 427.150 171.298, 433 176.865 C 436.850 180.529, 440 183.874, 440 184.298 C 440 184.722, 437.113 188.452, 433.585 192.587 C 425.574 201.977, 422.795 207.637, 423.199 213.747 C 423.436 217.332, 424.073 218.725, 426.197 220.305 C 428.819 222.256, 429.023 222.263, 433.472 220.564 C 438.950 218.472, 443.919 212.474, 447.069 204.153 C 448.793 199.596, 449.107 197.113, 448.688 191.345 C 448.080 182.974, 447.604 183.623, 461.382 174.044 C 466.935 170.183, 470.004 168.548, 469.569 169.682 C 466.142 178.612, 466.611 189.044, 470.557 191.629 C 480.493 198.139, 491.198 174.890, 484.064 162.294 C 482.097 158.822, 481.903 157.822, 482.953 156.557 C 483.652 155.715, 483.963 154.345, 483.643 153.513 C 482.717 151.099, 479.383 151.756, 476.765 154.867 M 329.104 158.535 C 327.397 160.479, 326 162.562, 326 163.163 C 326 164.566, 331.897 160.041, 333.796 157.180 C 336.289 153.426, 332.673 154.470, 329.104 158.535 M 411.677 164.734 C 410.305 167.012, 407 179.701, 407 182.689 C 407 186.699, 408.374 186.720, 411.335 182.753 C 413.589 179.734, 415.021 165.749, 413.192 164.619 C 412.612 164.260, 411.931 164.312, 411.677 164.734 M 476.168 170.750 C 473.921 177.652, 473.251 186, 474.943 186 C 478.006 186, 481.749 173.808, 480.588 167.616 C 480.215 165.627, 479.562 164, 479.137 164 C 478.712 164, 477.376 167.037, 476.168 170.750 M 437.195 194.872 C 431.143 202.066, 428.026 207.907, 428.012 212.083 C 428.005 214.054, 428.302 215.968, 428.670 216.337 C 429.486 217.153, 433.818 214.417, 436.208 211.576 C 439.225 207.988, 442.118 199.002, 441.798 194.212 L 441.500 189.756 437.195 194.872 M 465.669 206.746 C 459.649 244.171, 437.576 277.666, 406.215 296.963 L 400.937 300.210 402.917 303.338 C 404.006 305.058, 405.286 306.595, 405.761 306.754 C 408.586 307.695, 431.953 289.308, 440.676 279.279 C 459.247 257.928, 472.453 229.149, 474.612 205.328 C 475.254 198.240, 475.204 198, 473.072 198 C 471.860 198, 470.083 197.580, 469.123 197.066 C 467.554 196.226, 467.203 197.211, 465.669 206.746 M 262.353 216.425 C 230.388 234.922, 217.886 247.210, 217.689 260.325 C 217.623 264.670, 218.001 265.612, 220.823 268.133 C 229.808 276.161, 249.419 266.955, 262.445 248.594 C 268.382 240.226, 274.298 228.091, 277.401 217.917 C 280.140 208.938, 280.474 206.974, 279.250 207.040 C 278.837 207.063, 271.234 211.286, 262.353 216.425 M 213.661 234.170 C 212.649 234.736, 210.737 234.992, 209.411 234.738 C 208.085 234.485, 207 234.403, 207 234.556 C 207 234.709, 207.914 236.966, 209.031 239.572 L 211.062 244.310 214.096 240.183 C 216.116 237.437, 216.858 235.569, 216.315 234.599 C 215.704 233.506, 215.039 233.399, 213.661 234.170 M 224.053 254.900 C 222.633 257.554, 222.719 263.319, 224.200 264.800 C 225.420 266.020, 233 266.516, 233 265.376 C 233 265.033, 231.224 262.093, 229.053 258.842 C 225.472 253.480, 225.009 253.114, 224.053 254.900 M 240.152 279.737 L 235.804 281.232 240.652 286.201 C 245.996 291.678, 259.802 302.396, 265.999 305.879 L 269.964 308.108 271.978 304.804 C 273.086 302.987, 273.994 301.268, 273.996 300.984 C 273.998 300.700, 271.564 299.010, 268.586 297.229 C 262.985 293.879, 254.094 287.069, 248 281.463 L 244.500 278.242 240.152 279.737 M 384.658 303.302 C 379.122 305.615, 379.026 306.416, 383.185 315.628 L 385.500 320.756 390.750 318.744 C 393.637 317.638, 396 316.117, 396 315.366 C 396 313.672, 396.033 313.670, 391.578 315.532 C 389.562 316.374, 387.482 316.798, 386.956 316.473 C 384.925 315.218, 386.157 312.961, 389.677 311.490 C 392.128 310.466, 393.021 309.621, 392.354 308.954 C 391.687 308.287, 390.165 308.451, 387.785 309.445 C 384.407 310.857, 384.189 310.829, 383.691 308.927 C 383.271 307.321, 383.953 306.603, 387.083 305.350 C 390.815 303.857, 391.890 302.617, 390.250 301.698 C 389.837 301.467, 387.321 302.188, 384.658 303.302 M 284.345 304.905 C 278.977 308.223, 278.921 314.730, 284.230 318.449 C 287.122 320.474, 292 320.507, 292 318.500 C 292 317.503, 291.003 317, 289.023 317 C 286.938 317, 285.547 316.238, 284.381 314.459 C 280.850 309.070, 287.622 303.417, 292.321 307.832 C 293.631 309.062, 295.038 309.594, 295.776 309.138 C 296.696 308.570, 296.431 307.817, 294.761 306.258 C 291.364 303.088, 287.996 302.650, 284.345 304.905 M 352.176 311.715 C 349.667 312.194, 349.713 311.242, 351.588 324 C 351.979 326.659, 352.687 328, 353.699 328 C 354.893 328, 355.083 327.257, 354.578 324.566 C 353.961 321.276, 354.068 321.118, 357.140 320.816 C 358.903 320.642, 360.549 319.882, 360.798 319.126 C 361.141 318.083, 360.377 317.854, 357.625 318.175 C 355.631 318.408, 354 318.276, 354 317.881 C 354 317.486, 353.727 316.452, 353.393 315.582 C 352.938 314.397, 353.419 314, 355.311 314 C 358.469 314, 361 313.063, 361 311.893 C 361 310.991, 356.455 310.900, 352.176 311.715 M 317.078 318.866 C 314.835 322.707, 313 326.108, 313 326.424 C 313 327.631, 315.331 326.929, 316.463 325.382 C 318.210 322.992, 326 324.385, 326 327.088 C 326 328.140, 326.675 329, 327.500 329 C 329.526 329, 329.400 327.577, 326.658 319.445 C 325.238 315.232, 323.695 312.379, 322.736 312.192 C 321.687 311.987, 319.787 314.227, 317.078 318.866 M 320.682 317.700 C 318.507 321.839, 318.537 322, 321.500 322 C 324.083 322, 324.312 321.279, 323.083 317 L 322.364 314.500 320.682 317.700" stroke="none" fill="#000000" fill-rule="evenodd"/>
</svg>